#!OML:ASF E:\emotionWalksFemale\Project 1\Capture day 1\Session 1\Female1.ASF
:FULLY-SPECIFIED
:DEGREES
271
root 8.68368 12.5732 -4.49559 -166.864 0.00366231 -177.057
lowerback 32.6178 -0.338728 0.5809
upperback 1.31459 0.445345 -0.490128
thorax -15.5087 0.442275 -1.12559
lowerneck -14.7949 -0.978018 -6.98889
upperneck -18.3443 -2.73879 7.60928
head -2.98277 -2.46813 3.55425
rclavicle 6.55989e-015 -1.98785e-015
rhumerus 39.9843 -0.746402 -34.9377
rradius 58.9506
rwrist -4.62831
rhand -0.213057 -50.6942
rfingers 7.12502
rthumb 25.3863 -79.0241
lclavicle 6.55989e-015 -1.98785e-015
lhumerus 44.6143 3.71692 46.8837
lradius 46.6504
lwrist 9.92972
lhand -14.7878 -53.8178
lfingers 7.12502
lthumb 11.3694 -24.146
rfemur -59.4125 7.29196 26.7335
rtibia 84.8772
rfoot -32.8721 -28.2866
rtoes 1.30071
lfemur -64.9848 5.14161 -20.8152
ltibia 85.8167
lfoot -35.9291 1.82023
ltoes -27.0264
272
root 8.68704 12.6624 -4.57956 -166.968 0.197872 -177.03
lowerback 31.6153 -0.231097 0.483044
upperback 1.21016 0.485845 -0.473848
thorax -15.1924 0.44489 -1.05766
lowerneck -14.2708 -1.02738 -6.64089
upperneck -18.7556 -2.9375 7.2197
head -3.18608 -2.59658 3.38802
rclavicle -7.95139e-016 -5.1684e-015
rhumerus 40.3515 -1.3726 -32.6148
rradius 60.0846
rwrist -5.56481
rhand 0.432958 -49.5822
rfingers 7.12502
rthumb 26.005 -77.8227
lclavicle -7.95139e-016 -5.1684e-015
lhumerus 45.1724 4.06776 44.1702
lradius 48.2597
lwrist 10.5762
lhand -14.8834 -53.6088
lfingers 7.12502
lthumb 11.2772 -23.932
rfemur -58.223 7.3746 26.7922
rtibia 83.7692
rfoot -32.6847 -28.3198
rtoes 1.05136
lfemur -63.838 5.41477 -20.7762
ltibia 84.8856
lfoot -36.0344 1.77182
ltoes -26.6709
273
root 8.69094 12.7623 -4.66338 -167.212 -0.189234 -177.178
lowerback 30.732 -0.375181 0.459813
upperback 1.14067 0.249552 -0.415131
thorax -14.8844 0.328303 -0.873661
lowerneck -14.735 -1.01922 -5.91103
upperneck -17.7178 -3.06591 6.15484
head -3.19747 -2.61216 3.12949
rclavicle -4.77083e-015 0
rhumerus 40.7437 -1.9036 -30.203
rradius 61.1103
rwrist -6.77195
rhand 1.07908 -48.7638
rfingers 7.12502
rthumb 26.6235 -76.9119
lclavicle -4.77083e-015 0
lhumerus 45.5293 4.50584 41.3897
lradius 49.9363
lwrist 11.3046
lhand -15.2385 -53.3688
lfingers 7.12502
lthumb 10.9347 -23.6735
rfemur -56.7687 6.84732 26.8042
rtibia 82.5769
rfoot -32.8174 -28.1958
rtoes 1.44999
lfemur -62.4716 5.0959 -20.7852
ltibia 83.7947
lfoot -36.0769 1.62447
ltoes -26.5058
274
root 8.68919 12.8655 -4.743 -167.456 -0.197879 -177.168
lowerback 30.0122 -0.381185 0.486432
upperback 0.953432 0.192183 -0.401553
thorax -14.7785 0.278468 -0.84236
lowerneck -14.5094 -0.923666 -5.59861
upperneck -17.4952 -2.94133 5.90637
head -3.16443 -2.5319 2.98235
rclavicle -5.36719e-015 -7.95139e-015
rhumerus 40.9284 -2.28233 -27.897
rradius 62.082
rwrist -8.06952
rhand 2.16949 -49.3812
rfingers 7.12502
rthumb 27.6667 -77.3665
lclavicle -5.36719e-015 -7.95139e-015
lhumerus 45.4982 4.7163 38.1467
lradius 52.1734
lwrist 12.7513
lhand -15.2936 -52.9347
lfingers 7.12502
lthumb 10.8816 -23.2366
rfemur -55.3132 6.67915 26.8604
rtibia 81.2495
rfoot -32.7277 -28.0415
rtoes 1.28533
lfemur -61.0782 5.10044 -20.7285
ltibia 82.6395
lfoot -36.0325 1.75733
ltoes -26.7788
275
root 8.68437 12.9746 -4.82726 -167.717 0.102808 -177.081
lowerback 29.321 -0.257565 0.511463
upperback 0.717135 0.300747 -0.378845
thorax -14.735 0.300076 -0.866478
lowerneck -14.6955 -0.936222 -5.69643
upperneck -16.8112 -2.82527 5.97105
head -2.89242 -2.41272 2.9954
rclavicle 3.37934e-015 -7.95139e-016
rhumerus 40.8419 -2.55483 -25.7826
rradius 63.1673
rwrist -9.30011
rhand 3.32046 -49.5321
rfingers 7.12502
rthumb 28.7667 -77.3357
lclavicle 3.37934e-015 -7.95139e-016
lhumerus 44.9867 5.03153 35.4464
lradius 54.1098
lwrist 14.0221
lhand -14.677 -53.6189
lfingers 7.12502
lthumb 11.4763 -23.9531
rfemur -53.7993 6.76689 26.9251
rtibia 79.8045
rfoot -32.5439 -27.7699
rtoes 1.16497
lfemur -59.5622 5.38114 -20.659
ltibia 81.3833
lfoot -35.9183 2.38861
ltoes -28.2442
276
root 8.67764 13.0873 -4.91548 -168.057 0.400181 -177.056
lowerback 28.6661 -0.140652 0.501246
upperback 0.51777 0.406074 -0.311059
thorax -14.6609 0.32883 -0.820783
lowerneck -14.6284 -4.15566 -5.26663
upperneck -16.0231 -1.64756 6.91068
head -2.62933 0.537252 3.14148
rclavicle 1.39149e-015 1.19271e-014
rhumerus 40.5765 -2.74223 -23.7148
rradius 64.4954
rwrist -10.5582
rhand 4.47975 -48.8965
rfingers 7.12502
rthumb 29.8736 -76.5066
lclavicle 1.39149e-015 1.19271e-014
lhumerus 44.1338 5.43829 33.035
lradius 56.0098
lwrist 14.9217
lhand -13.8018 -54.4741
lfingers 7.12502
lthumb 12.3202 -24.8571
rfemur -52.1573 6.74944 26.9339
rtibia 78.2584
rfoot -32.3827 -27.4084
rtoes 1.20062
lfemur -57.8803 5.61588 -20.6314
ltibia 80.0177
lfoot -35.785 2.75385
ltoes -29.2377
277
root 8.66841 13.203 -5.00591 -168.514 0.568115 -177.032
lowerback 27.976 -0.1022 0.621572
upperback 0.801703 0.468616 -0.237729
thorax -14.7769 0.331536 -0.87053
lowerneck -14.6012 -3.89558 -5.40737
upperneck -15.6305 -1.38649 6.76111
head -2.51403 0.637114 3.11949
rclavicle 2.5842e-015 -4.77083e-015
rhumerus 40.2456 -2.93664 -21.5965
rradius 65.8453
rwrist -11.9114
rhand 5.79955 -48.2693
rfingers 7.12502
rthumb 31.1323 -75.6455
lclavicle 2.5842e-015 -4.77083e-015
lhumerus 43.3231 5.72884 30.4586
lradius 58.2379
lwrist 15.8862
lhand -13.468 -54.0734
lfingers 7.12502
lthumb 12.642 -24.476
rfemur -50.3061 6.56355 26.9695
rtibia 76.5902
rfoot -32.1875 -27.0795
rtoes 0.742736
lfemur -56.0123 5.67657 -20.5479
ltibia 78.5141
lfoot -35.5761 2.95663
ltoes -29.9019
278
root 8.65808 13.3293 -5.10768 -169.153 0.692814 -177.234
lowerback 27.7189 -0.18806 0.704044
upperback 0.487155 0.305564 -0.416214
thorax -15.0153 0.221789 -1.05735
lowerneck -14.7233 -3.54988 -5.07235
upperneck -14.6658 -1.19711 6.46147
head -2.17565 0.635764 2.94809
rclavicle -5.36719e-015 -3.97569e-016
rhumerus 39.9024 -2.53033 -19.695
rradius 66.9885
rwrist -13.3023
rhand 7.19149 -47.7438
rfingers 7.12502
rthumb 32.4579 -74.8568
lclavicle -5.36719e-015 -3.97569e-016
lhumerus 42.0645 5.60798 27.3772
lradius 60.694
lwrist 17.3997
lhand -12.7783 -53.6681
lfingers 7.12502
lthumb 13.3069 -24.1129
rfemur -48.1218 6.1823 26.7819
rtibia 74.7954
rfoot -32.0153 -26.6862
rtoes 0.154264
lfemur -53.7196 5.5482 -20.6671
ltibia 76.8045
lfoot -35.3994 3.40005
ltoes -30.5666
279
root 8.65105 13.4681 -5.21666 -169.939 0.812984 -177.598
lowerback 27.0481 -0.144928 0.341164
upperback 0.448196 0.219128 -0.444752
thorax -14.6925 0.202637 -0.838435
lowerneck -14.7122 -3.33983 -4.78623
upperneck -14.0282 -1.13287 6.11628
head -1.96675 0.59634 2.77223
rclavicle -2.18663e-015 -7.15625e-015
rhumerus 39.6293 -2.21376 -17.2934
rradius 68.2067
rwrist -14.7487
rhand 8.76495 -47.5166
rfingers 7.12502
rthumb 33.954 -74.3106
lclavicle -2.18663e-015 -7.15625e-015
lhumerus 40.827 5.64527 24.7186
lradius 63.0089
lwrist 18.7884
lhand -12.1423 -53.7074
lfingers 7.12502
lthumb 13.9198 -24.1933
rfemur -45.6664 5.70927 26.4399
rtibia 72.8444
rfoot -31.7993 -26.2467
rtoes -0.090135
lfemur -51.1042 5.38417 -20.9299
ltibia 74.9034
lfoot -35.3345 3.60102
ltoes -30.1915
280
root 8.64952 13.6042 -5.31051 -170.515 0.88729 -177.455
lowerback 26.7588 -0.164413 0.45604
upperback 0.117033 0.189019 -0.388953
thorax -14.9294 0.161958 -0.82404
lowerneck -14.0501 -2.97177 -4.70292
upperneck -13.6826 -0.840813 5.96193
head -1.97502 0.664113 2.71395
rclavicle 2.18663e-015 -4.77083e-015
rhumerus 39.0845 -1.46267 -15.0091
rradius 69.6192
rwrist -16.087
rhand 10.2077 -47.2224
rfingers 7.12502
rthumb 35.3234 -73.7023
lclavicle 2.18663e-015 -4.77083e-015
lhumerus 39.4944 5.15583 21.7932
lradius 65.2096
lwrist 19.7874
lhand -12.7398 -53.8325
lfingers 7.12502
lthumb 13.344 -24.2798
rfemur -43.4568 5.4616 26.6574
rtibia 70.7244
rfoot -31.2566 -25.8346
rtoes -0.129893
lfemur -48.931 5.42218 -20.618
ltibia 72.9717
lfoot -35.1666 3.25377
ltoes -28.9006
281
root 8.64711 13.7397 -5.39758 -171.004 1.05765 -177.14
lowerback 26.439 -0.181602 0.702835
upperback -0.190325 0.215208 -0.281934
thorax -15.1194 0.140828 -0.847752
lowerneck -14.1577 -2.619 -4.47946
upperneck -12.741 -0.599745 5.717
head -1.65591 0.70586 2.59096
rclavicle 3.18055e-015 -1.03368e-014
rhumerus 38.5337 -0.673181 -12.8017
rradius 70.9273
rwrist -17.1329
rhand 11.3605 -46.5826
rfingers 7.12502
rthumb 36.4155 -72.7959
lclavicle 3.18055e-015 -1.03368e-014
lhumerus 37.7515 4.71632 19.1409
lradius 67.2467
lwrist 20.2465
lhand -13.1417 -54.2861
lfingers 7.12502
lthumb 12.9566 -24.7084
rfemur -41.3554 5.34834 27.0273
rtibia 68.4909
rfoot -30.8447 -25.0807
rtoes 1.04245
lfemur -46.8876 5.57007 -20.1327
ltibia 70.9796
lfoot -34.8496 2.99008
ltoes -28.0836
282
root 8.6378 13.8808 -5.49409 -171.668 1.35539 -177.197
lowerback 25.9253 -0.144129 0.688002
upperback -0.272962 0.235445 -0.290614
thorax -14.9285 0.143563 -0.851573
lowerneck -14.3842 -2.37079 -4.23103
upperneck -11.8774 -0.469792 5.39239
head -1.34118 0.707383 2.43609
rclavicle 6.16232e-015 1.63003e-014
rhumerus 37.9293 0.0874356 -10.275
rradius 72.2847
rwrist -18.1245
rhand 12.2824 -46.3318
rfingers 7.12502
rthumb 37.2877 -72.3214
lclavicle 6.16232e-015 1.63003e-014
lhumerus 36.3665 4.4445 16.7794
lradius 68.9428
lwrist 20.6279
lhand -12.5324 -54.2319
lfingers 7.12502
lthumb 13.5439 -24.6924
rfemur -38.9889 5.10257 26.9441
rtibia 66.2233
rfoot -30.8298 -24.0794
rtoes 2.96928
lfemur -44.4372 5.64477 -20.0888
ltibia 68.8713
lfoot -34.5223 3.25499
ltoes -28.5613
